M48
; DRILL file {KiCad 8.0.1} date 2024-04-29T04:15:08+0200
; FORMAT={-:-/ absolute / inch / decimal}
; #@! TF.CreationDate,2024-04-29T04:15:08+02:00
; #@! TF.GenerationSoftware,Kicad,Pcbnew,8.0.1
; #@! TF.FileFunction,Plated,1,2,PTH
FMAT,2
INCH
; #@! TA.AperFunction,Plated,PTH,ViaDrill
T1C0.0118
; #@! TA.AperFunction,Plated,PTH,ComponentDrill
T2C0.0157
; #@! TA.AperFunction,Plated,PTH,ComponentDrill
T3C0.0276
; #@! TA.AperFunction,Plated,PTH,ComponentDrill
T4C0.0295
; #@! TA.AperFunction,Plated,PTH,ComponentDrill
T5C0.0394
; #@! TA.AperFunction,Plated,PTH,ComponentDrill
T6C0.0441
; #@! TA.AperFunction,Plated,PTH,ComponentDrill
T7C0.0523
; #@! TA.AperFunction,Plated,PTH,ComponentDrill
T8C0.0866
%
G90
G05
T1
X3.9594Y-3.4449
X3.9697Y-3.6106
X3.9736Y-3.3717
X4.0134Y-3.228
X4.1657Y-3.1906
X4.185Y-3.6051
X4.4441Y-3.1067
X4.4457Y-3.1933
X4.5543Y-3.5567
X4.598Y-3.0209
X4.6315Y-3.2657
X4.6421Y-2.6807
X4.6445Y-4.1764
X4.6453Y-3.0988
X4.6657Y-2.3264
X4.6787Y-3.6551
X4.7004Y-3.5114
X4.7543Y-3.3339
X4.7935Y-4.8919
X4.828Y-2.8618
X4.8472Y-3.5528
X4.8508Y-3.9299
X4.8772Y-2.4673
X4.8888Y-2.5938
X4.9189Y-3.7197
X4.9256Y-2.5311
X4.9319Y-2.8602
X4.948Y-3.2476
X4.9646Y-4.439
X4.9677Y-2.6681
X4.997Y-2.5307
X5.0079Y-3.5949
X5.028Y-2.6169
X5.0311Y-2.7572
X5.039Y-2.865
X5.0516Y-3.0579
X5.072Y-3.2472
X5.0764Y-2.5736
X5.0945Y-3.3583
X5.1248Y-3.7327
X5.1378Y-3.9937
X5.1449Y-3.9299
X5.1594Y-3.3862
X5.1598Y-4.1386
X5.1854Y-2.9043
X5.1913Y-4.8728
X5.1965Y-2.3307
X5.2016Y-5.1425
X5.2024Y-2.4547
X5.2043Y-2.011
X5.2068Y-3.8258
X5.2272Y-4.0056
X5.2327Y-3.6941
X5.235Y-2.3654
X5.2567Y-3.4839
X5.2587Y-3.8875
X5.2787Y-2.9024
X5.2797Y-2.8136
X5.2799Y-3.5835
X5.2807Y-4.7276
X5.285Y-3.2441
X5.2902Y-2.652
X5.3047Y-3.8858
X5.315Y-2.3752
X5.3638Y-3.728
X5.3665Y-4.7035
X5.3744Y-4.5307
X5.3886Y-2.9988
X5.4098Y-2.3134
X5.4189Y-2.4283
X5.4199Y-3.0856
X5.4272Y-2.0839
X5.437Y-3.3476
X5.4496Y-2.9492
X5.4518Y-5.3417
X5.4571Y-3.9012
X5.5197Y-2.224
X5.5386Y-2.7988
X5.5406Y-3.4559
X5.5437Y-2.6492
X5.5449Y-2.5484
X5.5484Y-2.7476
X5.5756Y-2.2161
X5.577Y-5.2319
X5.6004Y-3.1366
X5.6264Y-5.0161
X5.6382Y-2.9795
X5.6402Y-3.6382
X5.6504Y-2.6087
X5.6594Y-3.7476
X5.672Y-3.152
X5.6795Y-4.9114
X5.6835Y-2.663
X5.6862Y-3.4512
X5.6933Y-2.8579
X5.6945Y-3.8039
X5.6992Y-4.8008
X5.7157Y-3.6252
X5.7331Y-2.7118
X5.7343Y-4.5055
X5.7445Y-4.0839
X5.774Y-2.3343
X5.8213Y-3.2476
X5.8398Y-3.5677
X5.8425Y-2.9004
X5.8504Y-4.935
X5.8839Y-4.5594
X5.8843Y-4.4965
X5.8898Y-2.7476
X5.8972Y-3.8752
X5.9197Y-3.2508
X5.9724Y-3.25
X6.0205Y-3.252
X6.0516Y-3.3976
X6.063Y-3.6866
X6.0665Y-3.5244
X6.0717Y-3.2551
X6.1287Y-3.0205
X6.1311Y-3.9213
X6.1339Y-3.0752
X6.1469Y-2.4988
X6.1587Y-4.5665
X6.1768Y-3.2055
X6.1858Y-3.4996
X6.2177Y-3.5016
X6.2217Y-4.7051
X6.2335Y-2.85
X6.235Y-2.7992
X6.2362Y-2.898
X6.2429Y-2.7004
X6.2437Y-2.75
X6.2457Y-2.6543
X6.2472Y-3.1472
X6.2535Y-3.5051
X6.2642Y-4.5909
X6.2961Y-3.4634
X6.3087Y-2.3709
X6.3177Y-3.5854
X6.3272Y-3.4732
X6.3465Y-3.626
X6.3858Y-3.1476
X6.3878Y-3.4252
X6.411Y-3.8622
X6.4366Y-3.3646
X6.439Y-2.3701
X6.4465Y-3.4854
X6.4591Y-3.7138
X6.4618Y-2.0331
X6.4835Y-3.6815
X6.5232Y-3.7547
X6.5465Y-4.1417
X6.5646Y-3.6335
X6.6004Y-3.8051
X6.6142Y-4.6547
X6.6232Y-2.8504
X6.6531Y-2.9059
X6.6744Y-3.6677
X6.6957Y-3.3953
X6.7059Y-3.6673
X6.7087Y-2.8437
X6.7094Y-2.7331
X6.7094Y-3.5894
X6.7394Y-3.6776
X6.7488Y-4.3669
X6.8077Y-4.451
X6.8083Y-3.7508
X6.8354Y-4.3614
X6.8373Y-2.7952
X6.8437Y-2.6409
X6.8559Y-4.25
X6.8673Y-4.187
X6.8713Y-3.7465
X6.9183Y-3.7569
X6.9378Y-2.7445
X6.961Y-3.5669
X6.9921Y-2.9232
X7.0173Y-4.3819
X7.0878Y-4.6606
X7.1327Y-3.0634
X7.1638Y-4.5583
X7.2543Y-3.7189
X7.4697Y-4.1484
X7.4713Y-3.4492
X7.478Y-3.6028
X7.4805Y-3.3682
X7.4895Y-4.0897
X7.4988Y-4.311
X7.5264Y-3.9323
X7.5504Y-3.2291
X7.6661Y-3.2067
X7.6724Y-3.9047
X7.6961Y-3.6031
X7.7079Y-4.3114
T2
X4.5035Y-3.8488
X4.5225Y-3.8028
X4.5225Y-3.8947
X4.5684Y-3.7838
X4.5684Y-3.9137
X4.6144Y-3.8028
X4.6144Y-3.8947
X4.6334Y-3.8488
X4.6764Y-2.5339
X4.6764Y-4.719
X4.6954Y-2.488
X4.6954Y-2.5799
X4.6954Y-4.6731
X4.6954Y-4.7649
X4.7413Y-2.469
X4.7413Y-2.5989
X4.7413Y-4.654
X4.7413Y-4.7839
X4.7873Y-2.488
X4.7873Y-2.5799
X4.7873Y-4.6731
X4.7873Y-4.7649
X4.8063Y-2.5339
X4.8063Y-4.719
X5.1334Y-4.6165
X5.1524Y-4.5705
X5.1524Y-4.6624
X5.1983Y-4.5515
X5.1983Y-4.6814
X5.2443Y-4.5705
X5.2443Y-4.6624
X5.2633Y-4.6165
X5.5039Y-2.0517
X5.5229Y-2.0057
X5.5229Y-2.0976
X5.5689Y-1.9867
X5.5689Y-2.1166
X5.6148Y-2.0057
X5.6148Y-2.0976
X5.6338Y-2.0517
X6.0339Y-2.0517
X6.0529Y-2.0057
X6.0529Y-2.0976
X6.0989Y-1.9867
X6.0989Y-2.1166
X6.1448Y-2.0057
X6.1448Y-2.0976
X6.1638Y-2.0517
X6.4044Y-4.6165
X6.4234Y-4.5705
X6.4234Y-4.6624
X6.4694Y-4.5515
X6.4694Y-4.6814
X6.5153Y-4.5705
X6.5153Y-4.6624
X6.5343Y-4.6165
X6.8614Y-2.5339
X6.8614Y-4.719
X6.8804Y-2.488
X6.8804Y-2.5799
X6.8804Y-4.6731
X6.8804Y-4.7649
X6.9264Y-2.469
X6.9264Y-2.5989
X6.9264Y-4.654
X6.9264Y-4.7839
X6.9723Y-2.488
X6.9723Y-2.5799
X6.9723Y-4.6731
X6.9723Y-4.7649
X6.9913Y-2.5339
X6.9913Y-4.719
X7.0343Y-3.8488
X7.0534Y-3.8028
X7.0534Y-3.8947
X7.0993Y-3.7838
X7.0993Y-3.9137
X7.1452Y-3.8028
X7.1452Y-3.8947
X7.1643Y-3.8488
T3
X3.9592Y-3.5197
X4.0183Y-3.5197
X4.0774Y-3.5197
X4.1364Y-3.5197
X4.1955Y-3.5197
X5.0792Y-2.2278
X5.1327Y-2.2028
X5.1863Y-2.1779
X5.2398Y-2.1529
X5.2933Y-2.128
X5.6457Y-4.0807
X5.6457Y-4.1398
X5.6457Y-4.1988
X5.6457Y-4.2579
X5.6457Y-4.3169
X5.6457Y-4.376
X5.7154Y-1.7764
X5.7744Y-1.7764
X5.8335Y-1.7764
X5.8925Y-1.7764
X5.9516Y-1.7764
X6.0091Y-4.0772
X6.0091Y-4.1362
X6.0091Y-4.1953
X6.0091Y-4.2543
X6.0091Y-4.3134
X6.0091Y-4.3724
X6.3914Y-2.1225
X6.445Y-2.1475
X6.4985Y-2.1724
X6.552Y-2.1974
X6.6055Y-2.2224
X7.4697Y-4.226
X7.4705Y-3.5128
X7.5287Y-4.226
X7.5295Y-3.5128
X7.5878Y-4.226
X7.5886Y-3.5128
X7.6469Y-4.226
X7.6476Y-3.5128
X7.7059Y-4.226
X7.7067Y-3.5128
T4
X4.4988Y-3.4752
X4.4988Y-3.5539
X4.4988Y-3.6327
X6.0949Y-4.7161
X6.0949Y-4.9287
X6.2949Y-4.7161
X6.2949Y-4.9287
X7.2059Y-2.6151
X7.2521Y-2.6788
X7.2984Y-2.7425
T5
X4.3399Y-2.7815
X4.3899Y-2.6949
X4.4657Y-4.1264
X4.4657Y-4.2264
X4.4657Y-4.3264
X5.7846Y-2.0299
X5.8831Y-2.0299
X6.1764Y-5.232
X6.2719Y-5.2082
X6.6971Y-5.0284
X6.7796Y-4.9748
X7.2303Y-3.1327
X7.2303Y-3.2327
X7.2303Y-3.3327
X7.2303Y-3.4327
X7.2315Y-4.0232
X7.2315Y-4.1232
X7.2315Y-4.2232
X7.2315Y-4.3232
X7.2315Y-4.4232
X7.2315Y-4.5232
X7.2315Y-4.6232
T6
X4.0368Y-3.2783
X4.1368Y-3.2783
X7.5488Y-3.9811
X7.5504Y-3.2789
X7.6488Y-3.9811
X7.6504Y-3.2789
T7
X4.4996Y-3.01
X4.4996Y-3.2915
T8
X4.5684Y-3.8488
X4.7413Y-2.5339
X4.7413Y-4.719
X5.1983Y-4.6165
X5.5689Y-2.0517
X6.0989Y-2.0517
X6.4694Y-4.6165
X6.9264Y-2.5339
X6.9264Y-4.719
X7.0993Y-3.8488
M30
