%TF.GenerationSoftware,KiCad,Pcbnew,8.0.1*%
%TF.CreationDate,2024-04-29T04:15:04+02:00*%
%TF.ProjectId,PAMI-Power_Board,50414d49-2d50-46f7-9765-725f426f6172,rev?*%
%TF.SameCoordinates,Original*%
%TF.FileFunction,Paste,Top*%
%TF.FilePolarity,Positive*%
%FSLAX46Y46*%
G04 Gerber Fmt 4.6, Leading zero omitted, Abs format (unit mm)*
G04 Created by KiCad (PCBNEW 8.0.1) date 2024-04-29 04:15:04*
%MOMM*%
%LPD*%
G01*
G04 APERTURE LIST*
G04 Aperture macros list*
%AMRoundRect*
0 Rectangle with rounded corners*
0 $1 Rounding radius*
0 $2 $3 $4 $5 $6 $7 $8 $9 X,Y pos of 4 corners*
0 Add a 4 corners polygon primitive as box body*
4,1,4,$2,$3,$4,$5,$6,$7,$8,$9,$2,$3,0*
0 Add four circle primitives for the rounded corners*
1,1,$1+$1,$2,$3*
1,1,$1+$1,$4,$5*
1,1,$1+$1,$6,$7*
1,1,$1+$1,$8,$9*
0 Add four rect primitives between the rounded corners*
20,1,$1+$1,$2,$3,$4,$5,0*
20,1,$1+$1,$4,$5,$6,$7,0*
20,1,$1+$1,$6,$7,$8,$9,0*
20,1,$1+$1,$8,$9,$2,$3,0*%
%AMRotRect*
0 Rectangle, with rotation*
0 The origin of the aperture is its center*
0 $1 length*
0 $2 width*
0 $3 Rotation angle, in degrees counterclockwise*
0 Add horizontal line*
21,1,$1,$2,0,0,$3*%
G04 Aperture macros list end*
%ADD10RoundRect,0.250000X-0.350000X-0.450000X0.350000X-0.450000X0.350000X0.450000X-0.350000X0.450000X0*%
%ADD11RoundRect,0.250000X-0.450000X0.350000X-0.450000X-0.350000X0.450000X-0.350000X0.450000X0.350000X0*%
%ADD12RoundRect,0.250000X-0.475000X0.337500X-0.475000X-0.337500X0.475000X-0.337500X0.475000X0.337500X0*%
%ADD13R,1.300000X0.500000*%
%ADD14R,0.870000X0.500000*%
%ADD15RoundRect,0.250000X-0.337500X-0.475000X0.337500X-0.475000X0.337500X0.475000X-0.337500X0.475000X0*%
%ADD16R,2.200000X1.400000*%
%ADD17RoundRect,0.250000X-0.535281X-0.196150X0.058353X-0.567093X0.535281X0.196150X-0.058353X0.567093X0*%
%ADD18RoundRect,0.250000X0.475000X-0.337500X0.475000X0.337500X-0.475000X0.337500X-0.475000X-0.337500X0*%
%ADD19RotRect,1.000000X2.550000X148.000000*%
%ADD20RotRect,1.700000X1.700000X148.000000*%
%ADD21RoundRect,0.250000X0.350000X0.450000X-0.350000X0.450000X-0.350000X-0.450000X0.350000X-0.450000X0*%
%ADD22R,1.500000X0.900000*%
%ADD23R,0.900000X1.500000*%
%ADD24R,0.900000X0.900000*%
%ADD25R,1.800000X2.300000*%
%ADD26R,1.400000X0.450000*%
%ADD27R,1.846000X2.150000*%
%ADD28R,1.400000X2.200000*%
%ADD29RoundRect,0.250000X0.450000X-0.350000X0.450000X0.350000X-0.450000X0.350000X-0.450000X-0.350000X0*%
%ADD30R,1.525000X0.450000*%
%ADD31RotRect,1.400000X2.200000X203.000000*%
%ADD32R,1.110000X0.550000*%
%ADD33RoundRect,0.114286X0.285714X0.785714X-0.285714X0.785714X-0.285714X-0.785714X0.285714X-0.785714X0*%
%ADD34R,1.300000X1.500000*%
%ADD35R,1.000000X0.500000*%
%ADD36R,1.400000X0.400000*%
%ADD37R,1.900000X1.750000*%
%ADD38R,1.450000X1.150000*%
%ADD39RoundRect,0.250000X0.379242X-0.442388X0.542539X0.212562X-0.379242X0.442388X-0.542539X-0.212562X0*%
%ADD40R,1.050000X0.650000*%
%ADD41R,0.800000X0.350000*%
%ADD42R,0.350000X0.850000*%
%ADD43R,2.700000X2.600000*%
%ADD44RotRect,0.650000X1.050000X75.000000*%
%ADD45RoundRect,0.250000X-0.582661X-0.006155X-0.185906X-0.552241X0.582661X0.006155X0.185906X0.552241X0*%
G04 APERTURE END LIST*
D10*
%TO.C,R5*%
X165490000Y-113055000D03*
X167490000Y-113055000D03*
%TD*%
D11*
%TO.C,R3*%
X137740000Y-122310000D03*
X137740000Y-124310000D03*
%TD*%
D12*
%TO.C,C4*%
X148600000Y-122275000D03*
X148600000Y-124350000D03*
%TD*%
D13*
%TO.C,D8*%
X137375000Y-96400000D03*
D14*
X136060000Y-96400000D03*
%TD*%
D15*
%TO.C,C9*%
X171350000Y-106350000D03*
X173425000Y-106350000D03*
%TD*%
D16*
%TO.C,TPEN1*%
X149890000Y-135250000D03*
%TD*%
%TO.C,Coder1_B1*%
X152380000Y-99070000D03*
%TD*%
D17*
%TO.C,R18*%
X128613902Y-120710162D03*
X130310000Y-121770000D03*
%TD*%
D16*
%TO.C,TP3.3V_1*%
X137740000Y-119430000D03*
%TD*%
D18*
%TO.C,C13*%
X137930000Y-93427500D03*
X137930000Y-91352500D03*
%TD*%
D19*
%TO.C,S1*%
X130582131Y-125396268D03*
X128886035Y-124336428D03*
X127189938Y-123276591D03*
D20*
X131200000Y-129880000D03*
X122889130Y-124686791D03*
%TD*%
D21*
%TO.C,R28*%
X129940000Y-103660000D03*
X127940000Y-103660000D03*
%TD*%
D22*
%TO.C,IC4*%
X139750000Y-63470000D03*
X139750000Y-64740000D03*
X139750000Y-66010000D03*
X139750000Y-67280000D03*
X139750000Y-68550000D03*
X139750000Y-69820000D03*
X139750000Y-71090000D03*
X139750000Y-72360000D03*
X139750000Y-73630000D03*
X139750000Y-74900000D03*
X139750000Y-76170000D03*
X139750000Y-77440000D03*
X139750000Y-78710000D03*
X139750000Y-79980000D03*
D23*
X141515000Y-81230000D03*
X142785000Y-81230000D03*
X144055000Y-81230000D03*
X145325000Y-81230000D03*
X146595000Y-81230000D03*
X147865000Y-81230000D03*
X149135000Y-81230000D03*
X150405000Y-81230000D03*
X151675000Y-81230000D03*
X152945000Y-81230000D03*
X154215000Y-81230000D03*
X155485000Y-81230000D03*
D22*
X157250000Y-79980000D03*
X157250000Y-78710000D03*
X157250000Y-77440000D03*
X157250000Y-76170000D03*
X157250000Y-74900000D03*
X157250000Y-73630000D03*
X157250000Y-72360000D03*
X157250000Y-71090000D03*
X157250000Y-69820000D03*
X157250000Y-68550000D03*
X157250000Y-67280000D03*
X157250000Y-66010000D03*
X157250000Y-64740000D03*
X157250000Y-63470000D03*
D24*
X147000000Y-71190000D03*
X145600000Y-69790000D03*
X145600000Y-71190000D03*
X145600000Y-72590000D03*
X147000000Y-72590000D03*
X148400000Y-72590000D03*
X148400000Y-71190000D03*
X148400000Y-69790000D03*
X147000000Y-69790000D03*
%TD*%
D25*
%TO.C,C19*%
X159255000Y-85460000D03*
X162155000Y-85460000D03*
%TD*%
D26*
%TO.C,IC1*%
X168210000Y-69772500D03*
X168210000Y-70422500D03*
X168210000Y-71072500D03*
X168210000Y-71722500D03*
X172610000Y-71722500D03*
X172610000Y-71072500D03*
X172610000Y-70422500D03*
X172610000Y-69772500D03*
D27*
X170410000Y-70747500D03*
%TD*%
D28*
%TO.C,TPBuzzer1*%
X120000000Y-110080000D03*
%TD*%
D29*
%TO.C,R7*%
X167070000Y-110355000D03*
X167070000Y-108355000D03*
%TD*%
D30*
%TO.C,IC6*%
X155213000Y-88215000D03*
X155213000Y-88865000D03*
X155213000Y-89515000D03*
X155213000Y-90165000D03*
X155213000Y-90815000D03*
X155213000Y-91465000D03*
X155213000Y-92115000D03*
X155213000Y-92765000D03*
X155213000Y-93415000D03*
X155213000Y-94065000D03*
X155213000Y-94715000D03*
X155213000Y-95365000D03*
X162337000Y-95365000D03*
X162337000Y-94715000D03*
X162337000Y-94065000D03*
X162337000Y-93415000D03*
X162337000Y-92765000D03*
X162337000Y-92115000D03*
X162337000Y-91465000D03*
X162337000Y-90815000D03*
X162337000Y-90165000D03*
X162337000Y-89515000D03*
X162337000Y-88865000D03*
X162337000Y-88215000D03*
%TD*%
D21*
%TO.C,R26*%
X162090000Y-66170000D03*
X160090000Y-66170000D03*
%TD*%
D15*
%TO.C,C18*%
X154640000Y-86300000D03*
X156715000Y-86300000D03*
%TD*%
D29*
%TO.C,R15*%
X123800000Y-61640000D03*
X123800000Y-59640000D03*
%TD*%
D16*
%TO.C,TP6V1*%
X166530000Y-101820000D03*
%TD*%
D31*
%TO.C,TPBAT1*%
X165700000Y-131800000D03*
%TD*%
D26*
%TO.C,IC7*%
X131330000Y-91450000D03*
X131330000Y-92100000D03*
X131330000Y-92750000D03*
X131330000Y-93400000D03*
X135730000Y-93400000D03*
X135730000Y-92750000D03*
X135730000Y-92100000D03*
X135730000Y-91450000D03*
D27*
X133530000Y-92425000D03*
%TD*%
D32*
%TO.C,D3*%
X173410000Y-103840000D03*
X171130000Y-103840000D03*
%TD*%
D16*
%TO.C,TPPWM-B1*%
X158720000Y-98190000D03*
%TD*%
D26*
%TO.C,IC3*%
X171420000Y-108395000D03*
X171420000Y-109045000D03*
X171420000Y-109695000D03*
X171420000Y-110345000D03*
X175820000Y-110345000D03*
X175820000Y-109695000D03*
X175820000Y-109045000D03*
X175820000Y-108395000D03*
D27*
X173620000Y-109370000D03*
%TD*%
D13*
%TO.C,D4*%
X166300000Y-105950000D03*
D14*
X164985000Y-105950000D03*
%TD*%
D11*
%TO.C,R30*%
X144440000Y-84060000D03*
X144440000Y-86060000D03*
%TD*%
D21*
%TO.C,R19*%
X136410000Y-68400000D03*
X134410000Y-68400000D03*
%TD*%
D32*
%TO.C,D1*%
X171870000Y-65130000D03*
X169590000Y-65130000D03*
%TD*%
D33*
%TO.C,IR_rec_1*%
X194610000Y-91515000D03*
X193340000Y-91515000D03*
X192070000Y-91515000D03*
X190800000Y-91515000D03*
%TD*%
D21*
%TO.C,R10*%
X130830000Y-83540000D03*
X128830000Y-83540000D03*
%TD*%
D34*
%TO.C,LS1*%
X124900000Y-108250000D03*
X124900000Y-112750000D03*
X128400000Y-108250000D03*
%TD*%
D32*
%TO.C,D7*%
X133500000Y-89180000D03*
X131220000Y-89180000D03*
%TD*%
D10*
%TO.C,R20*%
X131160000Y-96300000D03*
X133160000Y-96300000D03*
%TD*%
D16*
%TO.C,Tirette1*%
X146700000Y-89470000D03*
%TD*%
D13*
%TO.C,D5*%
X148385000Y-114220000D03*
D14*
X147070000Y-114220000D03*
%TD*%
D16*
%TO.C,TPIR-Rec1*%
X131690000Y-76630000D03*
%TD*%
D29*
%TO.C,R22*%
X146100000Y-108940000D03*
X146100000Y-106940000D03*
%TD*%
D12*
%TO.C,C17*%
X131680000Y-69052500D03*
X131680000Y-71127500D03*
%TD*%
%TO.C,C7*%
X177950000Y-108292500D03*
X177950000Y-110367500D03*
%TD*%
D16*
%TO.C,TP3.3V_2*%
X126580000Y-97480000D03*
%TD*%
D12*
%TO.C,C8*%
X169280000Y-108317500D03*
X169280000Y-110392500D03*
%TD*%
D11*
%TO.C,R16*%
X126210000Y-60590000D03*
X126210000Y-62590000D03*
%TD*%
D10*
%TO.C,R2*%
X165950000Y-73830000D03*
X167950000Y-73830000D03*
%TD*%
D29*
%TO.C,R27*%
X145200000Y-136330000D03*
X145200000Y-134330000D03*
%TD*%
D12*
%TO.C,C20*%
X164675000Y-90475000D03*
X164675000Y-92550000D03*
%TD*%
D16*
%TO.C,TPRuban_LED1*%
X120500000Y-92810000D03*
%TD*%
D29*
%TO.C,R17*%
X126640000Y-73690000D03*
X126640000Y-71690000D03*
%TD*%
D16*
%TO.C,TPPOW-IR-LED1*%
X124070000Y-56400000D03*
%TD*%
D35*
%TO.C,Q4*%
X121910000Y-103210000D03*
X121910000Y-104510000D03*
X123910000Y-103860000D03*
%TD*%
D11*
%TO.C,R31*%
X147010000Y-84050000D03*
X147010000Y-86050000D03*
%TD*%
D12*
%TO.C,C22*%
X129110000Y-91352500D03*
X129110000Y-93427500D03*
%TD*%
D10*
%TO.C,R4*%
X139990000Y-127410000D03*
X141990000Y-127410000D03*
%TD*%
D12*
%TO.C,C14*%
X123930000Y-71662500D03*
X123930000Y-73737500D03*
%TD*%
D10*
%TO.C,R24*%
X135070000Y-73880000D03*
X137070000Y-73880000D03*
%TD*%
D36*
%TO.C,J6*%
X116940000Y-78730000D03*
X116940000Y-79380000D03*
X116940000Y-80030000D03*
X116940000Y-80680000D03*
X116940000Y-81330000D03*
D37*
X114290000Y-78905000D03*
X114290000Y-81155000D03*
D38*
X116520000Y-77710000D03*
X116520000Y-82350000D03*
%TD*%
D39*
%TO.C,C25*%
X141149007Y-135856682D03*
X141650993Y-133843318D03*
%TD*%
D11*
%TO.C,R1*%
X163840000Y-69740000D03*
X163840000Y-71740000D03*
%TD*%
D26*
%TO.C,IC2*%
X142070000Y-122395000D03*
X142070000Y-123045000D03*
X142070000Y-123695000D03*
X142070000Y-124345000D03*
X146470000Y-124345000D03*
X146470000Y-123695000D03*
X146470000Y-123045000D03*
X146470000Y-122395000D03*
D27*
X144270000Y-123370000D03*
%TD*%
D12*
%TO.C,C15*%
X129130000Y-71662500D03*
X129130000Y-73737500D03*
%TD*%
D18*
%TO.C,C26*%
X176800000Y-93530000D03*
X176800000Y-91455000D03*
%TD*%
D12*
%TO.C,C5*%
X139930000Y-122275000D03*
X139930000Y-124350000D03*
%TD*%
D15*
%TO.C,C1*%
X168112500Y-67710000D03*
X170187500Y-67710000D03*
%TD*%
D40*
%TO.C,S3*%
X180109998Y-91320000D03*
X184259999Y-91320001D03*
X180109999Y-93469999D03*
X184260000Y-93470000D03*
%TD*%
D21*
%TO.C,R9*%
X136300000Y-83540000D03*
X134300000Y-83540000D03*
%TD*%
D32*
%TO.C,D2*%
X144550000Y-117340000D03*
X142270000Y-117340000D03*
%TD*%
D33*
%TO.C,IR_rec_2*%
X105494851Y-91570040D03*
X104224851Y-91570040D03*
X102954851Y-91570040D03*
X101684851Y-91570040D03*
%TD*%
D29*
%TO.C,R8*%
X148970000Y-119540000D03*
X148970000Y-117540000D03*
%TD*%
D12*
%TO.C,C21*%
X118310000Y-87110000D03*
X118310000Y-89185000D03*
%TD*%
D10*
%TO.C,R6*%
X169860000Y-113055000D03*
X171860000Y-113055000D03*
%TD*%
D15*
%TO.C,C16*%
X128355000Y-62460000D03*
X130430000Y-62460000D03*
%TD*%
D18*
%TO.C,C24*%
X133860000Y-64427500D03*
X133860000Y-62352500D03*
%TD*%
D33*
%TO.C,IR_rec_3*%
X195060000Y-109500000D03*
X193790000Y-109500000D03*
X192520000Y-109500000D03*
X191250000Y-109500000D03*
%TD*%
D29*
%TO.C,R14*%
X122970000Y-89210000D03*
X122970000Y-87210000D03*
%TD*%
D16*
%TO.C,Coder1_A1*%
X141670000Y-98660000D03*
%TD*%
D10*
%TO.C,R25*%
X135050000Y-71790000D03*
X137050000Y-71790000D03*
%TD*%
D18*
%TO.C,C3*%
X175140000Y-71797500D03*
X175140000Y-69722500D03*
%TD*%
D16*
%TO.C,PWM-A1*%
X166480000Y-85960000D03*
%TD*%
%TO.C,TPSDA1*%
X115380000Y-65120000D03*
%TD*%
D41*
%TO.C,IC5*%
X124915000Y-65925000D03*
X124915000Y-66425000D03*
X124915000Y-66925000D03*
X124915000Y-67425000D03*
X124915000Y-67925000D03*
X124915000Y-68425000D03*
D42*
X125665000Y-69150000D03*
X126165000Y-69150000D03*
X126665000Y-69150000D03*
X127165000Y-69150000D03*
X127665000Y-69150000D03*
X128165000Y-69150000D03*
D41*
X128915000Y-68425000D03*
X128915000Y-67925000D03*
X128915000Y-67425000D03*
X128915000Y-66925000D03*
X128915000Y-66425000D03*
X128915000Y-65925000D03*
D42*
X128165000Y-65200000D03*
X127665000Y-65200000D03*
X127165000Y-65200000D03*
X126665000Y-65200000D03*
X126165000Y-65200000D03*
X125665000Y-65200000D03*
D43*
X126915000Y-67175000D03*
%TD*%
D44*
%TO.C,S2*%
X135007868Y-131829160D03*
X139016461Y-132903260D03*
X134451407Y-133905900D03*
X138460000Y-134980000D03*
%TD*%
D15*
%TO.C,C6*%
X141972500Y-120370000D03*
X144047500Y-120370000D03*
%TD*%
D10*
%TO.C,R21*%
X160070000Y-64000000D03*
X162070000Y-64000000D03*
%TD*%
D16*
%TO.C,TP1.475V1*%
X173540000Y-58400000D03*
%TD*%
D45*
%TO.C,C27*%
X179740173Y-70290645D03*
X180959827Y-71969355D03*
%TD*%
D16*
%TO.C,TPSCL1*%
X119520000Y-70780000D03*
%TD*%
D12*
%TO.C,C2*%
X166040000Y-69692500D03*
X166040000Y-71767500D03*
%TD*%
D29*
%TO.C,R23*%
X149810000Y-105620000D03*
X149810000Y-103620000D03*
%TD*%
D10*
%TO.C,R29*%
X140830000Y-48610000D03*
X142830000Y-48610000D03*
%TD*%
D18*
%TO.C,C23*%
X136250000Y-64440000D03*
X136250000Y-62365000D03*
%TD*%
M02*
