%TF.GenerationSoftware,KiCad,Pcbnew,8.0.1*%
%TF.CreationDate,2024-04-29T04:15:04+02:00*%
%TF.ProjectId,PAMI-Power_Board,50414d49-2d50-46f7-9765-725f426f6172,rev?*%
%TF.SameCoordinates,Original*%
%TF.FileFunction,Soldermask,Top*%
%TF.FilePolarity,Negative*%
%FSLAX46Y46*%
G04 Gerber Fmt 4.6, Leading zero omitted, Abs format (unit mm)*
G04 Created by KiCad (PCBNEW 8.0.1) date 2024-04-29 04:15:04*
%MOMM*%
%LPD*%
G01*
G04 APERTURE LIST*
G04 Aperture macros list*
%AMRoundRect*
0 Rectangle with rounded corners*
0 $1 Rounding radius*
0 $2 $3 $4 $5 $6 $7 $8 $9 X,Y pos of 4 corners*
0 Add a 4 corners polygon primitive as box body*
4,1,4,$2,$3,$4,$5,$6,$7,$8,$9,$2,$3,0*
0 Add four circle primitives for the rounded corners*
1,1,$1+$1,$2,$3*
1,1,$1+$1,$4,$5*
1,1,$1+$1,$6,$7*
1,1,$1+$1,$8,$9*
0 Add four rect primitives between the rounded corners*
20,1,$1+$1,$2,$3,$4,$5,0*
20,1,$1+$1,$4,$5,$6,$7,0*
20,1,$1+$1,$6,$7,$8,$9,0*
20,1,$1+$1,$8,$9,$2,$3,0*%
%AMHorizOval*
0 Thick line with rounded ends*
0 $1 width*
0 $2 $3 position (X,Y) of the first rounded end (center of the circle)*
0 $4 $5 position (X,Y) of the second rounded end (center of the circle)*
0 Add line between two ends*
20,1,$1,$2,$3,$4,$5,0*
0 Add two circle primitives to create the rounded ends*
1,1,$1,$2,$3*
1,1,$1,$4,$5*%
%AMRotRect*
0 Rectangle, with rotation*
0 The origin of the aperture is its center*
0 $1 length*
0 $2 width*
0 $3 Rotation angle, in degrees counterclockwise*
0 Add horizontal line*
21,1,$1,$2,0,0,$3*%
%AMOutline5P*
0 Free polygon, 5 corners , with rotation*
0 The origin of the aperture is its center*
0 number of corners: always 5*
0 $1 to $10 corner X, Y*
0 $11 Rotation angle, in degrees counterclockwise*
0 create outline with 5 corners*
4,1,5,$1,$2,$3,$4,$5,$6,$7,$8,$9,$10,$1,$2,$11*%
%AMOutline6P*
0 Free polygon, 6 corners , with rotation*
0 The origin of the aperture is its center*
0 number of corners: always 6*
0 $1 to $12 corner X, Y*
0 $13 Rotation angle, in degrees counterclockwise*
0 create outline with 6 corners*
4,1,6,$1,$2,$3,$4,$5,$6,$7,$8,$9,$10,$11,$12,$1,$2,$13*%
%AMOutline7P*
0 Free polygon, 7 corners , with rotation*
0 The origin of the aperture is its center*
0 number of corners: always 7*
0 $1 to $14 corner X, Y*
0 $15 Rotation angle, in degrees counterclockwise*
0 create outline with 7 corners*
4,1,7,$1,$2,$3,$4,$5,$6,$7,$8,$9,$10,$11,$12,$13,$14,$1,$2,$15*%
%AMOutline8P*
0 Free polygon, 8 corners , with rotation*
0 The origin of the aperture is its center*
0 number of corners: always 8*
0 $1 to $16 corner X, Y*
0 $17 Rotation angle, in degrees counterclockwise*
0 create outline with 8 corners*
4,1,8,$1,$2,$3,$4,$5,$6,$7,$8,$9,$10,$11,$12,$13,$14,$15,$16,$1,$2,$17*%
G04 Aperture macros list end*
%ADD10C,0.700000*%
%ADD11C,4.400000*%
%ADD12RoundRect,0.250000X-0.350000X-0.450000X0.350000X-0.450000X0.350000X0.450000X-0.350000X0.450000X0*%
%ADD13RoundRect,0.250000X-0.450000X0.350000X-0.450000X-0.350000X0.450000X-0.350000X0.450000X0.350000X0*%
%ADD14RoundRect,0.250000X-0.475000X0.337500X-0.475000X-0.337500X0.475000X-0.337500X0.475000X0.337500X0*%
%ADD15R,1.300000X0.500000*%
%ADD16R,0.870000X0.500000*%
%ADD17R,1.700000X1.700000*%
%ADD18O,1.700000X1.700000*%
%ADD19RoundRect,0.250000X-0.337500X-0.475000X0.337500X-0.475000X0.337500X0.475000X-0.337500X0.475000X0*%
%ADD20R,2.200000X1.400000*%
%ADD21RoundRect,0.250000X-0.535281X-0.196150X0.058353X-0.567093X0.535281X0.196150X-0.058353X0.567093X0*%
%ADD22RoundRect,0.250000X0.475000X-0.337500X0.475000X0.337500X-0.475000X0.337500X-0.475000X-0.337500X0*%
%ADD23RoundRect,0.250000X-0.400736X-0.872875X0.763619X-0.582569X0.400736X0.872875X-0.763619X0.582569X0*%
%ADD24HorizOval,1.700000X-0.036288X0.145544X0.036288X-0.145544X0*%
%ADD25RotRect,1.000000X2.550000X148.000000*%
%ADD26RotRect,1.700000X1.700000X148.000000*%
%ADD27Outline5P,-0.550000X0.875000X0.330000X0.875000X0.550000X0.655000X0.550000X-0.875000X-0.550000X-0.875000X335.000000*%
%ADD28HorizOval,1.100000X-0.137351X-0.294550X0.137351X0.294550X0*%
%ADD29RoundRect,0.250000X0.350000X0.450000X-0.350000X0.450000X-0.350000X-0.450000X0.350000X-0.450000X0*%
%ADD30R,1.500000X0.900000*%
%ADD31R,0.900000X1.500000*%
%ADD32R,0.900000X0.900000*%
%ADD33RoundRect,0.250000X-0.711360X-0.084210X-0.299911X-0.650522X0.711360X0.084210X0.299911X0.650522X0*%
%ADD34HorizOval,1.200000X-0.222480X-0.161641X0.222480X0.161641X0*%
%ADD35R,1.800000X2.300000*%
%ADD36Outline5P,-0.550000X0.875000X0.330000X0.875000X0.550000X0.655000X0.550000X-0.875000X-0.550000X-0.875000X90.000000*%
%ADD37O,1.750000X1.100000*%
%ADD38R,1.200000X1.200000*%
%ADD39C,1.200000*%
%ADD40R,1.400000X0.450000*%
%ADD41R,1.846000X2.150000*%
%ADD42R,1.400000X2.200000*%
%ADD43RoundRect,0.250000X0.450000X-0.350000X0.450000X0.350000X-0.450000X0.350000X-0.450000X-0.350000X0*%
%ADD44R,1.525000X0.450000*%
%ADD45RotRect,1.400000X2.200000X203.000000*%
%ADD46Outline5P,-0.550000X0.875000X0.330000X0.875000X0.550000X0.655000X0.550000X-0.875000X-0.550000X-0.875000X180.000000*%
%ADD47O,1.100000X1.750000*%
%ADD48C,1.700000*%
%ADD49R,1.110000X0.550000*%
%ADD50Outline5P,-0.550000X0.875000X0.330000X0.875000X0.550000X0.655000X0.550000X-0.875000X-0.550000X-0.875000X25.000000*%
%ADD51HorizOval,1.100000X-0.137351X0.294550X0.137351X-0.294550X0*%
%ADD52RoundRect,0.114286X0.285714X0.785714X-0.285714X0.785714X-0.285714X-0.785714X0.285714X-0.785714X0*%
%ADD53R,1.300000X1.500000*%
%ADD54C,0.500000*%
%ADD55R,1.500000X1.000000*%
%ADD56Outline5P,-0.550000X0.875000X0.330000X0.875000X0.550000X0.655000X0.550000X-0.875000X-0.550000X-0.875000X270.000000*%
%ADD57RoundRect,0.250000X-0.625000X0.350000X-0.625000X-0.350000X0.625000X-0.350000X0.625000X0.350000X0*%
%ADD58O,1.750000X1.200000*%
%ADD59R,1.000000X0.500000*%
%ADD60R,1.400000X0.400000*%
%ADD61C,1.850000*%
%ADD62R,1.900000X1.750000*%
%ADD63R,1.450000X1.150000*%
%ADD64RoundRect,0.250000X0.379242X-0.442388X0.542539X0.212562X-0.379242X0.442388X-0.542539X-0.212562X0*%
%ADD65RoundRect,0.250000X0.600000X0.750000X-0.600000X0.750000X-0.600000X-0.750000X0.600000X-0.750000X0*%
%ADD66O,1.700000X2.000000*%
%ADD67R,1.050000X0.650000*%
%ADD68RotRect,1.700000X1.700000X150.000000*%
%ADD69HorizOval,1.700000X0.000000X0.000000X0.000000X0.000000X0*%
%ADD70R,0.800000X0.350000*%
%ADD71R,0.350000X0.850000*%
%ADD72R,2.700000X2.600000*%
%ADD73RotRect,0.650000X1.050000X75.000000*%
%ADD74RoundRect,0.250000X-0.582661X-0.006155X-0.185906X-0.552241X0.582661X0.006155X0.185906X0.552241X0*%
%ADD75RoundRect,0.250000X-0.094723X-0.955786X0.911682X-0.302220X0.094723X0.955786X-0.911682X0.302220X0*%
%ADD76HorizOval,1.700000X-0.081696X0.125801X0.081696X-0.125801X0*%
%ADD77C,2.000000*%
%ADD78Outline5P,-0.550000X0.875000X0.550000X0.875000X0.550000X-0.655000X0.330000X-0.875000X-0.550000X-0.875000X180.000000*%
G04 APERTURE END LIST*
D10*
%TO.C,H9*%
X130387844Y-117258356D03*
X130871118Y-116091630D03*
X130871118Y-118425082D03*
X132037844Y-115608356D03*
D11*
X132037844Y-117258356D03*
D10*
X132037844Y-118908356D03*
X133204570Y-116091630D03*
X133204570Y-118425082D03*
X133687844Y-117258356D03*
%TD*%
D12*
%TO.C,R5*%
X165490000Y-113055000D03*
X167490000Y-113055000D03*
%TD*%
D10*
%TO.C,H10*%
X114387844Y-97758356D03*
X114871118Y-96591630D03*
X114871118Y-98925082D03*
X116037844Y-96108356D03*
D11*
X116037844Y-97758356D03*
D10*
X116037844Y-99408356D03*
X117204570Y-96591630D03*
X117204570Y-98925082D03*
X117687844Y-97758356D03*
%TD*%
D13*
%TO.C,R3*%
X137740000Y-122310000D03*
X137740000Y-124310000D03*
%TD*%
D14*
%TO.C,C4*%
X148600000Y-122275000D03*
X148600000Y-124350000D03*
%TD*%
D15*
%TO.C,D8*%
X137375000Y-96400000D03*
D16*
X136060000Y-96400000D03*
%TD*%
D17*
%TO.C,J16*%
X183650000Y-79570000D03*
D18*
X183650000Y-82110000D03*
X183650000Y-84650000D03*
X183650000Y-87190000D03*
%TD*%
D19*
%TO.C,C9*%
X171350000Y-106350000D03*
X173425000Y-106350000D03*
%TD*%
D20*
%TO.C,TPEN1*%
X149890000Y-135250000D03*
%TD*%
%TO.C,Coder1_B1*%
X152380000Y-99070000D03*
%TD*%
D21*
%TO.C,R18*%
X128613902Y-120710162D03*
X130310000Y-121770000D03*
%TD*%
D20*
%TO.C,TP3.3V_1*%
X137740000Y-119430000D03*
%TD*%
D22*
%TO.C,C13*%
X137930000Y-93427500D03*
X137930000Y-91352500D03*
%TD*%
D23*
%TO.C,J2*%
X156880122Y-132892999D03*
D24*
X159305862Y-132288194D03*
%TD*%
D25*
%TO.C,S1*%
X130582131Y-125396268D03*
X128886035Y-124336428D03*
X127189938Y-123276591D03*
D26*
X131200000Y-129880000D03*
X122889130Y-124686791D03*
%TD*%
D27*
%TO.C,J9*%
X162342285Y-53912059D03*
D28*
X163701746Y-54545986D03*
X165061208Y-55179913D03*
X166420670Y-55813841D03*
X167780131Y-56447768D03*
%TD*%
D29*
%TO.C,R28*%
X129940000Y-103660000D03*
X127940000Y-103660000D03*
%TD*%
D30*
%TO.C,IC4*%
X139750000Y-63470000D03*
X139750000Y-64740000D03*
X139750000Y-66010000D03*
X139750000Y-67280000D03*
X139750000Y-68550000D03*
X139750000Y-69820000D03*
X139750000Y-71090000D03*
X139750000Y-72360000D03*
X139750000Y-73630000D03*
X139750000Y-74900000D03*
X139750000Y-76170000D03*
X139750000Y-77440000D03*
X139750000Y-78710000D03*
X139750000Y-79980000D03*
D31*
X141515000Y-81230000D03*
X142785000Y-81230000D03*
X144055000Y-81230000D03*
X145325000Y-81230000D03*
X146595000Y-81230000D03*
X147865000Y-81230000D03*
X149135000Y-81230000D03*
X150405000Y-81230000D03*
X151675000Y-81230000D03*
X152945000Y-81230000D03*
X154215000Y-81230000D03*
X155485000Y-81230000D03*
D30*
X157250000Y-79980000D03*
X157250000Y-78710000D03*
X157250000Y-77440000D03*
X157250000Y-76170000D03*
X157250000Y-74900000D03*
X157250000Y-73630000D03*
X157250000Y-72360000D03*
X157250000Y-71090000D03*
X157250000Y-69820000D03*
X157250000Y-68550000D03*
X157250000Y-67280000D03*
X157250000Y-66010000D03*
X157250000Y-64740000D03*
X157250000Y-63470000D03*
D32*
X147000000Y-71190000D03*
X145600000Y-69790000D03*
X145600000Y-71190000D03*
X145600000Y-72590000D03*
X147000000Y-72590000D03*
X148400000Y-72590000D03*
X148400000Y-71190000D03*
X148400000Y-69790000D03*
X147000000Y-69790000D03*
%TD*%
D33*
%TO.C,J14*%
X183028686Y-66423286D03*
D34*
X184204257Y-68041322D03*
X185379827Y-69659355D03*
%TD*%
D35*
%TO.C,C19*%
X159255000Y-85460000D03*
X162155000Y-85460000D03*
%TD*%
D10*
%TO.C,H3*%
X118780001Y-119862278D03*
X119263275Y-118695552D03*
X119263275Y-121029004D03*
X120430001Y-118212278D03*
D11*
X120430001Y-119862278D03*
D10*
X120430001Y-121512278D03*
X121596727Y-118695552D03*
X121596727Y-121029004D03*
X122080001Y-119862278D03*
%TD*%
D36*
%TO.C,J3*%
X152630000Y-111060000D03*
D37*
X152630000Y-109560000D03*
X152630000Y-108060000D03*
X152630000Y-106560000D03*
X152630000Y-105060000D03*
X152630000Y-103560000D03*
%TD*%
D38*
%TO.C,K1*%
X159890000Y-125190000D03*
D39*
X159890000Y-119790000D03*
X154810000Y-119790000D03*
X154810000Y-125190000D03*
%TD*%
D40*
%TO.C,IC1*%
X168210000Y-69772500D03*
X168210000Y-70422500D03*
X168210000Y-71072500D03*
X168210000Y-71722500D03*
X172610000Y-71722500D03*
X172610000Y-71072500D03*
X172610000Y-70422500D03*
X172610000Y-69772500D03*
D41*
X170410000Y-70747500D03*
%TD*%
D42*
%TO.C,TPBuzzer1*%
X120000000Y-110080000D03*
%TD*%
D10*
%TO.C,H7*%
X178672157Y-97758356D03*
X179155431Y-96591630D03*
X179155431Y-98925082D03*
X180322157Y-96108356D03*
D11*
X180322157Y-97758356D03*
D10*
X180322157Y-99408356D03*
X181488883Y-96591630D03*
X181488883Y-98925082D03*
X181972157Y-97758356D03*
%TD*%
D43*
%TO.C,R7*%
X167070000Y-110355000D03*
X167070000Y-108355000D03*
%TD*%
D44*
%TO.C,IC6*%
X155213000Y-88215000D03*
X155213000Y-88865000D03*
X155213000Y-89515000D03*
X155213000Y-90165000D03*
X155213000Y-90815000D03*
X155213000Y-91465000D03*
X155213000Y-92115000D03*
X155213000Y-92765000D03*
X155213000Y-93415000D03*
X155213000Y-94065000D03*
X155213000Y-94715000D03*
X155213000Y-95365000D03*
X162337000Y-95365000D03*
X162337000Y-94715000D03*
X162337000Y-94065000D03*
X162337000Y-93415000D03*
X162337000Y-92765000D03*
X162337000Y-92115000D03*
X162337000Y-91465000D03*
X162337000Y-90815000D03*
X162337000Y-90165000D03*
X162337000Y-89515000D03*
X162337000Y-88865000D03*
X162337000Y-88215000D03*
%TD*%
D10*
%TO.C,H6*%
X153261001Y-52112278D03*
X153744275Y-50945552D03*
X153744275Y-53279004D03*
X154911001Y-50462278D03*
D11*
X154911001Y-52112278D03*
D10*
X154911001Y-53762278D03*
X156077727Y-50945552D03*
X156077727Y-53279004D03*
X156561001Y-52112278D03*
%TD*%
D29*
%TO.C,R26*%
X162090000Y-66170000D03*
X160090000Y-66170000D03*
%TD*%
D19*
%TO.C,C18*%
X154640000Y-86300000D03*
X156715000Y-86300000D03*
%TD*%
D43*
%TO.C,R15*%
X123800000Y-61640000D03*
X123800000Y-59640000D03*
%TD*%
D20*
%TO.C,TP6V1*%
X166530000Y-101820000D03*
%TD*%
D45*
%TO.C,TPBAT1*%
X165700000Y-131800000D03*
%TD*%
D46*
%TO.C,J8*%
X151170000Y-45120000D03*
D47*
X149670000Y-45120000D03*
X148170000Y-45120000D03*
X146670000Y-45120000D03*
X145170000Y-45120000D03*
%TD*%
D40*
%TO.C,IC7*%
X131330000Y-91450000D03*
X131330000Y-92100000D03*
X131330000Y-92750000D03*
X131330000Y-93400000D03*
X135730000Y-93400000D03*
X135730000Y-92750000D03*
X135730000Y-92100000D03*
X135730000Y-91450000D03*
D41*
X133530000Y-92425000D03*
%TD*%
D48*
%TO.C,LED3*%
X191740000Y-101120000D03*
X194280000Y-101120000D03*
%TD*%
D49*
%TO.C,D3*%
X173410000Y-103840000D03*
X171130000Y-103840000D03*
%TD*%
D20*
%TO.C,TPPWM-B1*%
X158720000Y-98190000D03*
%TD*%
D40*
%TO.C,IC3*%
X171420000Y-108395000D03*
X171420000Y-109045000D03*
X171420000Y-109695000D03*
X171420000Y-110345000D03*
X175820000Y-110345000D03*
X175820000Y-109695000D03*
X175820000Y-109045000D03*
X175820000Y-108395000D03*
D41*
X173620000Y-109370000D03*
%TD*%
D17*
%TO.C,J10*%
X183680000Y-102190000D03*
D18*
X183680000Y-104730000D03*
X183680000Y-107270000D03*
X183680000Y-109810000D03*
X183680000Y-112350000D03*
X183680000Y-114890000D03*
X183680000Y-117430000D03*
%TD*%
D15*
%TO.C,D4*%
X166300000Y-105950000D03*
D16*
X164985000Y-105950000D03*
%TD*%
D13*
%TO.C,R30*%
X144440000Y-84060000D03*
X144440000Y-86060000D03*
%TD*%
D10*
%TO.C,H1*%
X118780001Y-64362278D03*
X119263275Y-63195552D03*
X119263275Y-65529004D03*
X120430001Y-62712278D03*
D11*
X120430001Y-64362278D03*
D10*
X120430001Y-66012278D03*
X121596727Y-63195552D03*
X121596727Y-65529004D03*
X122080001Y-64362278D03*
%TD*%
D29*
%TO.C,R19*%
X136410000Y-68400000D03*
X134410000Y-68400000D03*
%TD*%
D49*
%TO.C,D1*%
X171870000Y-65130000D03*
X169590000Y-65130000D03*
%TD*%
D50*
%TO.C,J7*%
X129012153Y-56585710D03*
D51*
X130371615Y-55951782D03*
X131731076Y-55317855D03*
X133090538Y-54683928D03*
X134450000Y-54050000D03*
%TD*%
D52*
%TO.C,IR_rec_1*%
X194610000Y-91515000D03*
X193340000Y-91515000D03*
X192070000Y-91515000D03*
X190800000Y-91515000D03*
%TD*%
D29*
%TO.C,R10*%
X130830000Y-83540000D03*
X128830000Y-83540000D03*
%TD*%
D53*
%TO.C,LS1*%
X124900000Y-108250000D03*
X124900000Y-112750000D03*
X128400000Y-108250000D03*
%TD*%
D54*
%TO.C,mouse-bite-2mm-slot*%
X186250000Y-87140000D03*
X187750000Y-87140000D03*
X186250000Y-86390000D03*
X187750000Y-86390000D03*
X186250000Y-85640000D03*
X187750000Y-85640000D03*
%TD*%
%TO.C,mouse-bite-2mm-slot*%
X108620000Y-88060000D03*
X110120000Y-88060000D03*
X108620000Y-87310000D03*
X110120000Y-87310000D03*
X108620000Y-86560000D03*
X110120000Y-86560000D03*
%TD*%
D49*
%TO.C,D7*%
X133500000Y-89180000D03*
X131220000Y-89180000D03*
%TD*%
D12*
%TO.C,R20*%
X131160000Y-96300000D03*
X133160000Y-96300000D03*
%TD*%
D55*
%TO.C,JP1*%
X167250000Y-122650000D03*
X167250000Y-121350000D03*
%TD*%
D20*
%TO.C,Tirette1*%
X146700000Y-89470000D03*
%TD*%
D15*
%TO.C,D5*%
X148385000Y-114220000D03*
D16*
X147070000Y-114220000D03*
%TD*%
D20*
%TO.C,TPIR-Rec1*%
X131690000Y-76630000D03*
%TD*%
D43*
%TO.C,R22*%
X146100000Y-108940000D03*
X146100000Y-106940000D03*
%TD*%
D14*
%TO.C,C17*%
X131680000Y-69052500D03*
X131680000Y-71127500D03*
%TD*%
%TO.C,C7*%
X177950000Y-108292500D03*
X177950000Y-110367500D03*
%TD*%
D56*
%TO.C,J12*%
X143400000Y-103650000D03*
D37*
X143400000Y-105150000D03*
X143400000Y-106650000D03*
X143400000Y-108150000D03*
X143400000Y-109650000D03*
X143400000Y-111150000D03*
%TD*%
D20*
%TO.C,TP3.3V_2*%
X126580000Y-97480000D03*
%TD*%
D14*
%TO.C,C8*%
X169280000Y-108317500D03*
X169280000Y-110392500D03*
%TD*%
D13*
%TO.C,R16*%
X126210000Y-60590000D03*
X126210000Y-62590000D03*
%TD*%
D12*
%TO.C,R2*%
X165950000Y-73830000D03*
X167950000Y-73830000D03*
%TD*%
D43*
%TO.C,R27*%
X145200000Y-136330000D03*
X145200000Y-134330000D03*
%TD*%
D57*
%TO.C,J11*%
X114270000Y-88270000D03*
D58*
X114270000Y-90270000D03*
X114270000Y-92270000D03*
%TD*%
D14*
%TO.C,C20*%
X164675000Y-90475000D03*
X164675000Y-92550000D03*
%TD*%
D10*
%TO.C,H8*%
X162672157Y-117258356D03*
X163155431Y-116091630D03*
X163155431Y-118425082D03*
X164322157Y-115608356D03*
D11*
X164322157Y-117258356D03*
D10*
X164322157Y-118908356D03*
X165488883Y-116091630D03*
X165488883Y-118425082D03*
X165972157Y-117258356D03*
%TD*%
D20*
%TO.C,TPRuban_LED1*%
X120500000Y-92810000D03*
%TD*%
D43*
%TO.C,R17*%
X126640000Y-73690000D03*
X126640000Y-71690000D03*
%TD*%
D20*
%TO.C,TPPOW-IR-LED1*%
X124070000Y-56400000D03*
%TD*%
D59*
%TO.C,Q4*%
X121910000Y-103210000D03*
X121910000Y-104510000D03*
X123910000Y-103860000D03*
%TD*%
D13*
%TO.C,R31*%
X147010000Y-84050000D03*
X147010000Y-86050000D03*
%TD*%
D14*
%TO.C,C22*%
X129110000Y-91352500D03*
X129110000Y-93427500D03*
%TD*%
D48*
%TO.C,LED1*%
X191780000Y-83285000D03*
X194320000Y-83285000D03*
%TD*%
D12*
%TO.C,R4*%
X139990000Y-127410000D03*
X141990000Y-127410000D03*
%TD*%
D14*
%TO.C,C14*%
X123930000Y-71662500D03*
X123930000Y-73737500D03*
%TD*%
D12*
%TO.C,R24*%
X135070000Y-73880000D03*
X137070000Y-73880000D03*
%TD*%
D60*
%TO.C,J6*%
X116940000Y-78730000D03*
X116940000Y-79380000D03*
X116940000Y-80030000D03*
X116940000Y-80680000D03*
X116940000Y-81330000D03*
D61*
X114290000Y-76455000D03*
X114290000Y-83605000D03*
D62*
X114290000Y-78905000D03*
X114290000Y-81155000D03*
D63*
X116520000Y-77710000D03*
X116520000Y-82350000D03*
%TD*%
D17*
%TO.C,J17*%
X113430000Y-104810000D03*
D18*
X113430000Y-107350000D03*
X113430000Y-109890000D03*
%TD*%
D64*
%TO.C,C25*%
X141149007Y-135856682D03*
X141650993Y-133843318D03*
%TD*%
D13*
%TO.C,R1*%
X163840000Y-69740000D03*
X163840000Y-71740000D03*
%TD*%
D10*
%TO.C,H4*%
X174280001Y-119862278D03*
X174763275Y-118695552D03*
X174763275Y-121029004D03*
X175930001Y-118212278D03*
D11*
X175930001Y-119862278D03*
D10*
X175930001Y-121512278D03*
X177096727Y-118695552D03*
X177096727Y-121029004D03*
X177580001Y-119862278D03*
%TD*%
D40*
%TO.C,IC2*%
X142070000Y-122395000D03*
X142070000Y-123045000D03*
X142070000Y-123695000D03*
X142070000Y-124345000D03*
X146470000Y-124345000D03*
X146470000Y-123695000D03*
X146470000Y-123045000D03*
X146470000Y-122395000D03*
D41*
X144270000Y-123370000D03*
%TD*%
D14*
%TO.C,C15*%
X129130000Y-71662500D03*
X129130000Y-73737500D03*
%TD*%
D22*
%TO.C,C26*%
X176800000Y-93530000D03*
X176800000Y-91455000D03*
%TD*%
D14*
%TO.C,C5*%
X139930000Y-122275000D03*
X139930000Y-124350000D03*
%TD*%
D19*
%TO.C,C1*%
X168112500Y-67710000D03*
X170187500Y-67710000D03*
%TD*%
D65*
%TO.C,J20*%
X149430000Y-51560000D03*
D66*
X146930000Y-51560000D03*
%TD*%
D67*
%TO.C,S3*%
X180109998Y-91320000D03*
X184259999Y-91320001D03*
X180109999Y-93469999D03*
X184260000Y-93470000D03*
%TD*%
D29*
%TO.C,R9*%
X136300000Y-83540000D03*
X134300000Y-83540000D03*
%TD*%
D49*
%TO.C,D2*%
X144550000Y-117340000D03*
X142270000Y-117340000D03*
%TD*%
D48*
%TO.C,LED2*%
X102534851Y-83270040D03*
X105074851Y-83270040D03*
%TD*%
D52*
%TO.C,IR_rec_2*%
X105494851Y-91570040D03*
X104224851Y-91570040D03*
X102954851Y-91570040D03*
X101684851Y-91570040D03*
%TD*%
D43*
%TO.C,R8*%
X148970000Y-119540000D03*
X148970000Y-117540000D03*
%TD*%
D14*
%TO.C,C21*%
X118310000Y-87110000D03*
X118310000Y-89185000D03*
%TD*%
D12*
%TO.C,R6*%
X169860000Y-113055000D03*
X171860000Y-113055000D03*
%TD*%
D19*
%TO.C,C16*%
X128355000Y-62460000D03*
X130430000Y-62460000D03*
%TD*%
D10*
%TO.C,H5*%
X139799001Y-52112278D03*
X140282275Y-50945552D03*
X140282275Y-53279004D03*
X141449001Y-50462278D03*
D11*
X141449001Y-52112278D03*
D10*
X141449001Y-53762278D03*
X142615727Y-50945552D03*
X142615727Y-53279004D03*
X143099001Y-52112278D03*
%TD*%
D22*
%TO.C,C24*%
X133860000Y-64427500D03*
X133860000Y-62352500D03*
%TD*%
D52*
%TO.C,IR_rec_3*%
X195060000Y-109500000D03*
X193790000Y-109500000D03*
X192520000Y-109500000D03*
X191250000Y-109500000D03*
%TD*%
D54*
%TO.C,mouse-bite-2mm-slot*%
X186250000Y-104640000D03*
X187750000Y-104640000D03*
X186250000Y-103890000D03*
X187750000Y-103890000D03*
X186250000Y-103140000D03*
X187750000Y-103140000D03*
%TD*%
D68*
%TO.C,J15*%
X110233349Y-70650032D03*
D69*
X111503349Y-68450327D03*
%TD*%
D43*
%TO.C,R14*%
X122970000Y-89210000D03*
X122970000Y-87210000D03*
%TD*%
D20*
%TO.C,Coder1_A1*%
X141670000Y-98660000D03*
%TD*%
D12*
%TO.C,R25*%
X135050000Y-71790000D03*
X137050000Y-71790000D03*
%TD*%
D22*
%TO.C,C3*%
X175140000Y-71797500D03*
X175140000Y-69722500D03*
%TD*%
D20*
%TO.C,PWM-A1*%
X166480000Y-85960000D03*
%TD*%
%TO.C,TPSDA1*%
X115380000Y-65120000D03*
%TD*%
D70*
%TO.C,IC5*%
X124915000Y-65925000D03*
X124915000Y-66425000D03*
X124915000Y-66925000D03*
X124915000Y-67425000D03*
X124915000Y-67925000D03*
X124915000Y-68425000D03*
D71*
X125665000Y-69150000D03*
X126165000Y-69150000D03*
X126665000Y-69150000D03*
X127165000Y-69150000D03*
X127665000Y-69150000D03*
X128165000Y-69150000D03*
D70*
X128915000Y-68425000D03*
X128915000Y-67925000D03*
X128915000Y-67425000D03*
X128915000Y-66925000D03*
X128915000Y-66425000D03*
X128915000Y-65925000D03*
D71*
X128165000Y-65200000D03*
X127665000Y-65200000D03*
X127165000Y-65200000D03*
X126665000Y-65200000D03*
X126165000Y-65200000D03*
X125665000Y-65200000D03*
D72*
X126915000Y-67175000D03*
%TD*%
D73*
%TO.C,S2*%
X135007868Y-131829160D03*
X139016461Y-132903260D03*
X134451407Y-133905900D03*
X138460000Y-134980000D03*
%TD*%
D19*
%TO.C,C6*%
X141972500Y-120370000D03*
X144047500Y-120370000D03*
%TD*%
D10*
%TO.C,H2*%
X174280001Y-64362278D03*
X174763275Y-63195552D03*
X174763275Y-65529004D03*
X175930001Y-62712278D03*
D11*
X175930001Y-64362278D03*
D10*
X175930001Y-66012278D03*
X177096727Y-63195552D03*
X177096727Y-65529004D03*
X177580001Y-64362278D03*
%TD*%
D12*
%TO.C,R21*%
X160070000Y-64000000D03*
X162070000Y-64000000D03*
%TD*%
D20*
%TO.C,TP1.475V1*%
X173540000Y-58400000D03*
%TD*%
D74*
%TO.C,C27*%
X179740173Y-70290645D03*
X180959827Y-71969355D03*
%TD*%
D20*
%TO.C,TPSCL1*%
X119520000Y-70780000D03*
%TD*%
D14*
%TO.C,C2*%
X166040000Y-69692500D03*
X166040000Y-71767500D03*
%TD*%
D43*
%TO.C,R23*%
X149810000Y-105620000D03*
X149810000Y-103620000D03*
%TD*%
D75*
%TO.C,J1*%
X170105727Y-127720497D03*
D76*
X172202403Y-126358900D03*
%TD*%
D77*
%TO.C,TPUSBD-1*%
X121210000Y-77480000D03*
%TD*%
D12*
%TO.C,R29*%
X140830000Y-48610000D03*
X142830000Y-48610000D03*
%TD*%
D77*
%TO.C,TPUSBD+1*%
X121210000Y-81210000D03*
%TD*%
D22*
%TO.C,C23*%
X136250000Y-64440000D03*
X136250000Y-62365000D03*
%TD*%
D78*
%TO.C,J5*%
X106564851Y-89400040D03*
D47*
X105064851Y-89400040D03*
X103564851Y-89400040D03*
X102064851Y-89400040D03*
X100564851Y-89400040D03*
%TD*%
D78*
%TO.C,J4*%
X195750000Y-89225000D03*
D47*
X194250003Y-89225002D03*
X192750001Y-89225003D03*
X191250001Y-89225002D03*
X189750003Y-89225002D03*
%TD*%
D78*
%TO.C,J13*%
X195729999Y-107340000D03*
D47*
X194230000Y-107340000D03*
X192730000Y-107340000D03*
X191229999Y-107340000D03*
X189730000Y-107340000D03*
%TD*%
M02*
